<svg width="18px" height="17px" viewBox="0 0 180 170" version="1.1" xmlns="http://www.w3.org/2000/svg">
<g id="#9db4c0ff">
<path fill="#9db4c0" opacity="1.00" d=" M 4.46 0.00 L 42.04 0.00 C 46.72 15.11 51.40 30.22 56.08 45.33 C 97.39 45.34 138.69 45.32 180.00 45.34 L 180.00 45.51 C 174.55 66.95 169.36 88.45 163.94 109.89 C 162.83 113.98 163.09 118.40 161.27 122.30 C 157.95 130.29 149.72 135.96 141.02 135.97 C 120.00 136.01 98.98 136.05 77.97 135.95 C 66.82 135.85 56.95 126.21 56.35 115.12 C 53.38 94.39 49.57 73.79 46.28 53.10 C 45.70 49.60 45.28 46.05 44.19 42.66 C 40.68 32.22 37.23 21.77 33.75 11.33 C 24.49 11.29 15.24 11.40 5.98 11.30 C 3.09 11.56 0.76 9.36 0.00 6.72 L 0.00 4.74 C 0.55 2.45 2.27 0.76 4.46 0.00 M 58.12 56.67 C 61.07 74.44 63.99 92.21 66.95 109.98 C 67.54 112.96 67.37 116.22 68.97 118.92 C 70.94 122.44 74.87 124.76 78.92 124.65 C 99.66 124.64 120.40 124.74 141.14 124.61 C 146.79 124.54 151.54 119.59 151.87 114.04 C 156.17 94.82 161.44 75.82 165.85 56.62 C 129.94 56.74 94.03 56.62 58.12 56.67 Z" />
<path fill="#9db4c0" opacity="1.00" d=" M 67.51 159.05 C 67.15 153.15 72.16 147.60 78.06 147.36 C 84.05 146.84 89.78 151.94 89.95 157.95 C 90.48 163.75 85.93 169.07 80.28 170.00 L 77.53 170.00 C 72.14 169.32 67.58 164.55 67.51 159.05 Z" />
<path fill="#9db4c0" opacity="1.00" d=" M 125.53 152.57 C 129.45 145.70 140.50 145.68 144.44 152.54 C 149.06 159.11 144.34 169.03 136.47 170.00 L 133.74 170.00 C 125.76 169.23 120.89 159.19 125.53 152.57 Z" />
</g>
</svg>
